<svg id="Layer_1" data-name="Layer 1" xmlns="http://www.w3.org/2000/svg" viewBox="0 0 495.1 495.66"><defs><style>.cls-1{fill:#ffc30b;}</style></defs><path class="cls-1" d="M232.05.68c-13.4,2.1-31.9,9.4-43.4,17.3-6.7,4.5-20.6,18.2-25.6,25.2-11.3,15.8-19.5,39.8-19.5,57.1v3.4h15.6l1.2-10.1a86,86,0,0,1,24.7-51.4c46.9-47.5,126.8-27.9,146.6,35.9,1,3.3,1.7,6.2,1.4,6.4s-5.8-4-12.5-9.3-12.2-9.6-12.4-9.4-2.3,3-4.9,6.2l-4.7,5.9,21.1,16.9c22.2,17.8,24.4,18.9,28.7,15.1,2.6-2.2,33.6-41.2,33.1-41.6-.2-.1-3-2.4-6.3-4.9l-5.8-4.7-9.6,12c-9,11.4-11.2,13.1-11.2,9.1,0-5.1-7.8-23.2-14.6-33.8-4.3-6.8-17.1-20.1-24.8-26-8.1-6.1-26.1-14.6-36.6-17.3C262.85.28,241.75-.82,232.05.68Z" transform="translate(0 0)"/><path class="cls-1" d="M113.55,120.28a135.56,135.56,0,0,0-58,21.7c-9.6,6.4-27.3,24.1-33.7,33.7a136.06,136.06,0,0,0-19.9,47c-2.6,11.9-2.6,38.1,0,50,5.5,25.7,16.9,46.6,35.5,65.1,23.5,23.6,51.1,35.9,84.1,37.5a125.67,125.67,0,0,0,93.9-35.1c13-12.5,25.7-30.9,30.2-43.8.7-2,1.6-3.7,1.9-3.7s1.2,1.7,1.9,3.7c2.3,6.6,10,20.1,16.1,28.1a127.56,127.56,0,0,0,108,50.8c33-1.6,60.6-13.9,84.1-37.5,18.6-18.5,30-39.4,35.5-65.1,2.6-11.9,2.6-38.1,0-50-5.5-25.7-16.9-46.6-35.5-65.1-14.6-14.7-29.3-24-48.1-30.7-14.9-5.2-23.7-6.6-42-6.6s-27,1.4-42,6.6c-31.4,11-59.9,36.6-73.5,66.1-1.9,4.2-3.5,8-3.5,8.6,0,2.4-1.7.9-2.9-2.7-2.3-6.5-10-20-16.1-28a129.65,129.65,0,0,0-75-48.3C146.25,120.68,121.45,119.28,113.55,120.28Zm31,16.9a110.13,110.13,0,0,1,62,31.5A111.42,111.42,0,0,1,207,326.25l-.43.43c-33.3,33.2-83.8,42.3-125.6,22.6-34.8-16.5-58.3-47.6-63.9-84.6a111.91,111.91,0,0,1,127.5-127.5Zm232,2c9.2,6.4,19.2,26.3,24.4,48.3l1.4,6.2-7.1-.8c-4-.4-16.4-.7-27.7-.7s-23.7.3-27.7.7l-7.1.8,1.4-6.2c5.8-24.6,17.4-45.7,27.7-50.4C366.15,135.18,371.85,136,376.55,139.18Zm-41,2.3a3.17,3.17,0,0,1-.9,1.7,99.07,99.07,0,0,0-4.9,9,167.5,167.5,0,0,0-12,35.4l-1.8,8.5-8.5,1.8c-14.3,3.1-31.7,9.4-41.3,15-2.7,1.6-5,2.7-5.3,2.5s.7-3.3,2-6.8a113.17,113.17,0,0,1,65.2-65.5C334.75,140.48,335.55,140.38,335.55,141.48Zm71.2,1.6a112,112,0,0,1,65.5,65.5c1.3,3.5,2.2,6.6,1.9,6.8s-2.1-.6-4.3-2c-8.5-5.4-27.3-12.3-42.2-15.5l-8.5-1.8-1.8-8.5a167.5,167.5,0,0,0-12-35.4,99.07,99.07,0,0,0-4.9-9c-1-1-1.2-2.5-.4-2.5.2,0,3.3,1.1,6.7,2.4Zm-6.7,66.4,5,.7.9,5.5c1.1,7.1,1.1,56.9,0,64l-.9,5.5-5.5.9c-7.1,1.1-56.9,1.1-64,0l-5.5-.9-.7-5c-1.6-11.5-2-41.3-.9-55,.7-7.7,1.6-14.3,1.9-14.7,2.4-2.4,54.8-3.2,69.7-1Zm-87.5,14.3a317.79,317.79,0,0,0,0,47.8c.5,5.8.8,10.6.7,10.7-.6.5-20-5.1-26.7-7.7-15.7-6-27.8-15.3-30.1-23-3.3-10.8,8-22.3,30.7-31,6.7-2.6,25.6-8,26.1-7.5C313.35,213.18,313.05,218,312.55,223.78Zm130.2-5.1c10.5,3.5,17.3,6.9,25,12.2,18.4,12.9,14.4,27.4-11,40.2-6.1,3.1-20.1,7.9-29,10l-6.2,1.4.8-7.1c.4-4,.7-16.4.7-27.7s-.3-23.7-.7-27.7l-.8-7.1,6.2,1.4C431.15,215.08,438,217.08,442.75,218.68Zm-176.5,63.8c9.5,5.6,27,11.9,41.2,15l8.5,1.8,1.8,8.5c3.3,15.3,12.3,39,17,44.7,2,2.3.1,2.3-6.3-.1a112,112,0,0,1-65.5-65.5C259.65,278.28,259.45,278.48,266.25,282.48Zm208.3-2.3c0,.2-1.1,3.3-2.4,6.7a112,112,0,0,1-65.5,65.5c-6.4,2.4-8.3,2.4-6.3.1,4.7-5.7,13.7-29.4,17-44.7l1.8-8.5,8.5-1.8a167.5,167.5,0,0,0,35.4-12,99.07,99.07,0,0,0,9-4.9C473.05,279.58,474.55,279.38,474.55,280.18Zm-107,23c11.3,0,23.7-.3,27.7-.7l7.1-.8-1.4,6.2c-5.2,22.3-15.2,41.9-24.7,48.5a14.4,14.4,0,0,1-17.4,0c-9.5-6.6-19.5-26.2-24.7-48.5l-1.4-6.2,7.1.8C343.85,302.88,356.25,303.18,367.55,303.18Z" transform="translate(0 0)"/><path class="cls-1" d="M110.85,153.18A92.89,92.89,0,0,0,60,180.08c-16.5,16.5-26.1,37-28,59.7l-.7,7.9h16l.6-6.8A80.36,80.36,0,0,1,85.35,180c11.1-6.9,28-12.3,38.8-12.3h3.4v-16l-4.7.1A87.86,87.86,0,0,0,110.85,153.18Z" transform="translate(0 0)"/><path class="cls-1" d="M103.55,183.68v8h-16v16h8v80h-8v16h16v16h16v-16h8v16h16v-16.9l5.3-2.4a32.4,32.4,0,0,0,15.4-15c2.3-4.4,2.8-6.4,2.8-13.2,0-6.6-.5-8.9-2.6-13.5a48.08,48.08,0,0,0-5.3-8.3l-2.7-2.7,2.7-2.8a43.21,43.21,0,0,0,5.3-8.2c2.1-4.6,2.6-6.9,2.6-13.5,0-6.8-.5-8.8-2.8-13.2a32.4,32.4,0,0,0-15.4-15l-5.3-2.4v-16.9h-16v16h-8v-16h-16Zm40.6,26.6c5.3,3.9,6.9,7.1,6.9,13.4s-1.6,9.5-6.9,13.4c-2.4,1.9-4.4,2.1-17.7,2.4l-14.9.3v-32.2l14.9.3C139.75,208.18,141.75,208.38,144.15,210.28Zm0,48c5.3,3.9,6.9,7.1,6.9,13.4s-1.6,9.5-6.9,13.4c-2.4,1.9-4.4,2.1-17.7,2.4l-14.9.3v-32.2l14.9.3C139.75,256.18,141.75,256.38,144.15,258.28Z" transform="translate(0 0)"/><path class="cls-1" d="M207.25,254.38a80.64,80.64,0,0,1-72.9,73l-6.8.6v15.7h3.9c6.6,0,20.7-2.9,29.1-5.9,13.3-4.9,23.3-11.4,34.5-22.6,17.1-17.1,26.1-36.3,28.1-59.8l.7-7.7h-16Z" transform="translate(0 0)"/><path class="cls-1" d="M146.75,385.38c-2.6,2.3-33.6,41.3-33.1,41.7.2.1,3,2.3,6.2,4.9l5.9,4.7,9-11.2c4.9-6.2,9.3-11.7,9.7-12.1s2.1,3.1,3.6,8a99.62,99.62,0,0,0,24.2,41.3c9.6,10.1,17.4,16,28.3,21.5,30.4,15.3,63.7,15.3,94,0,10.3-5.1,15.1-8.6,24.3-17.4,13.2-12.6,21.6-25.7,27.4-42.6,2.5-7.4,5.3-22.5,5.3-28.8v-3.7h-15.7l-.7,7.5c-4.7,51.3-52.1,87.9-102.5,79.1a88.35,88.35,0,0,1-69.2-61c-1-3.3-1.7-6.2-1.4-6.4s5.8,4,12.5,9.3,12.2,9.6,12.4,9.4,2.3-3,4.9-6.2l4.7-5.9-21.1-16.9C153.25,382.78,151.05,381.68,146.75,385.38Z" transform="translate(0 0)"/></svg>