<svg id="Layer_1" data-name="Layer 1" xmlns="http://www.w3.org/2000/svg" viewBox="0 0 495.1 495.66"><defs><style>.cls-1{fill:#fff;}</style></defs><path class="cls-1" d="M240.5,9c-13.4,2.1-31.9,9.4-43.4,17.3-6.7,4.5-20.6,18.2-25.6,25.2C160.2,67.3,152,91.3,152,108.6V112h15.6l1.2-10.1a86,86,0,0,1,24.7-51.4C240.4,3,320.3,22.6,340.1,86.4c1,3.3,1.7,6.2,1.4,6.4s-5.8-4-12.5-9.3-12.2-9.6-12.4-9.4-2.3,3-4.9,6.2L307,86.2l21.1,16.9c22.2,17.8,24.4,18.9,28.7,15.1,2.6-2.2,33.6-41.2,33.1-41.6-.2-.1-3-2.4-6.3-4.9L377.8,67l-9.6,12c-9,11.4-11.2,13.1-11.2,9.1,0-5.1-7.8-23.2-14.6-33.8-4.3-6.8-17.1-20.1-24.8-26C309.5,22.2,291.5,13.7,281,11,271.3,8.6,250.2,7.5,240.5,9Z" transform="translate(-8.45 -8.32)"/><path class="cls-1" d="M122,128.6a135.48,135.48,0,0,0-58,21.7c-9.6,6.4-27.3,24.1-33.7,33.7a135.9,135.9,0,0,0-19.9,47c-2.6,11.9-2.6,38.1,0,50,5.5,25.7,16.9,46.6,35.5,65.1C69.4,369.7,97,382,130,383.6a125.67,125.67,0,0,0,93.9-35.1c13-12.5,25.7-30.9,30.2-43.8.7-2,1.6-3.7,1.9-3.7s1.2,1.7,1.9,3.7c2.3,6.6,10,20.1,16.1,28.1a127.59,127.59,0,0,0,108,50.8c33-1.6,60.6-13.9,84.1-37.5,18.6-18.5,30-39.4,35.5-65.1,2.6-11.9,2.6-38.1,0-50-5.5-25.7-16.9-46.6-35.5-65.1-14.6-14.7-29.3-24-48.1-30.7-14.9-5.2-23.7-6.6-42-6.6s-27,1.4-42,6.6c-31.4,11-59.9,36.6-73.5,66.1-1.9,4.2-3.5,8-3.5,8.6,0,2.4-1.7.9-2.9-2.7-2.3-6.5-10-20-16.1-28a129.66,129.66,0,0,0-75-48.3C154.7,129,129.9,127.6,122,128.6Zm31,16.9A110.12,110.12,0,0,1,215,177a111.42,111.42,0,0,1,0,158c-33.3,33.2-83.8,42.3-125.6,22.6C54.6,341.1,31.1,310,25.5,273A111.91,111.91,0,0,1,153,145.5Zm232,2c9.2,6.4,19.2,26.3,24.4,48.3l1.4,6.2-7.1-.8c-4-.4-16.4-.7-27.7-.7s-23.7.3-27.7.7l-7.1.8,1.4-6.2c5.8-24.6,17.4-45.7,27.7-50.4C374.6,143.5,380.3,144.3,385,147.5Zm-41,2.3a3.15,3.15,0,0,1-.9,1.7,98.14,98.14,0,0,0-4.9,9,167.33,167.33,0,0,0-12,35.4l-1.8,8.5-8.5,1.8c-14.3,3.1-31.7,9.4-41.3,15-2.7,1.6-5,2.7-5.3,2.5s.7-3.3,2-6.8a113.17,113.17,0,0,1,65.2-65.5C343.2,148.8,344,148.7,344,149.8Zm71.2,1.6a112,112,0,0,1,65.5,65.5c1.3,3.5,2.2,6.6,1.9,6.8s-2.1-.6-4.3-2c-8.5-5.4-27.3-12.3-42.2-15.5l-8.5-1.8-1.8-8.5a167.33,167.33,0,0,0-12-35.4,98.14,98.14,0,0,0-4.9-9c-1-1-1.2-2.5-.4-2.5C408.7,149,411.8,150.1,415.2,151.4Zm-6.7,66.4,5,.7.9,5.5c1.1,7.1,1.1,56.9,0,64l-.9,5.5-5.5.9c-7.1,1.1-56.9,1.1-64,0l-5.5-.9-.7-5c-1.6-11.5-2-41.3-.9-55,.7-7.7,1.6-14.3,1.9-14.7C341.2,216.4,393.6,215.6,408.5,217.8ZM321,232.1a317.79,317.79,0,0,0,0,47.8c.5,5.8.8,10.6.7,10.7-.6.5-20-5.1-26.7-7.7-15.7-6-27.8-15.3-30.1-23-3.3-10.8,8-22.3,30.7-31,6.7-2.6,25.6-8,26.1-7.5C321.8,221.5,321.5,226.3,321,232.1ZM451.2,227c10.5,3.5,17.3,6.9,25,12.2,18.4,12.9,14.4,27.4-11,40.2-6.1,3.1-20.1,7.9-29,10l-6.2,1.4.8-7.1c.4-4,.7-16.4.7-27.7s-.3-23.7-.7-27.7l-.8-7.1,6.2,1.4C439.6,223.4,446.4,225.4,451.2,227ZM274.7,290.8c9.5,5.6,27,11.9,41.2,15l8.5,1.8,1.8,8.5c3.3,15.3,12.3,39,17,44.7,2,2.3.1,2.3-6.3-.1a112,112,0,0,1-65.5-65.5C268.1,286.6,267.9,286.8,274.7,290.8ZM483,288.5c0,.2-1.1,3.3-2.4,6.7a112,112,0,0,1-65.5,65.5c-6.4,2.4-8.3,2.4-6.3.1,4.7-5.7,13.7-29.4,17-44.7l1.8-8.5,8.5-1.8a167.33,167.33,0,0,0,35.4-12,98.14,98.14,0,0,0,9-4.9C481.5,287.9,483,287.7,483,288.5Zm-107,23c11.3,0,23.7-.3,27.7-.7l7.1-.8-1.4,6.2c-5.2,22.3-15.2,41.9-24.7,48.5a14.4,14.4,0,0,1-17.4,0c-9.5-6.6-19.5-26.2-24.7-48.5l-1.4-6.2,7.1.8C352.3,311.2,364.7,311.5,376,311.5Z" transform="translate(-8.45 -8.32)"/><path class="cls-1" d="M119.3,161.5a92.83,92.83,0,0,0-50.9,26.9c-16.5,16.5-26.1,37-28,59.7l-.7,7.9h16l.6-6.8a80.36,80.36,0,0,1,37.5-60.9c11.1-6.9,28-12.3,38.8-12.3H136V160l-4.7.1A88.79,88.79,0,0,0,119.3,161.5Z" transform="translate(-8.45 -8.32)"/><path class="cls-1" d="M112,192v8H96v16h8v80H96v16h16v16h16V312h8v16h16V311.1l5.3-2.4a32.43,32.43,0,0,0,15.4-15c2.3-4.4,2.8-6.4,2.8-13.2,0-6.6-.5-8.9-2.6-13.5a48,48,0,0,0-5.3-8.3l-2.7-2.7,2.7-2.8a43.21,43.21,0,0,0,5.3-8.2c2.1-4.6,2.6-6.9,2.6-13.5,0-6.8-.5-8.8-2.8-13.2a32.43,32.43,0,0,0-15.4-15l-5.3-2.4V184H136v16h-8V184H112Zm40.6,26.6c5.3,3.9,6.9,7.1,6.9,13.4s-1.6,9.5-6.9,13.4c-2.4,1.9-4.4,2.1-17.7,2.4l-14.9.3V215.9l14.9.3C148.2,216.5,150.2,216.7,152.6,218.6Zm0,48c5.3,3.9,6.9,7.1,6.9,13.4s-1.6,9.5-6.9,13.4c-2.4,1.9-4.4,2.1-17.7,2.4l-14.9.3V263.9l14.9.3C148.2,264.5,150.2,264.7,152.6,266.6Z" transform="translate(-8.45 -8.32)"/><path class="cls-1" d="M215.7,262.7a80.64,80.64,0,0,1-72.9,73l-6.8.6V352h3.9c6.6,0,20.7-2.9,29.1-5.9,13.3-4.9,23.3-11.4,34.5-22.6,17.1-17.1,26.1-36.3,28.1-59.8l.7-7.7h-16Z" transform="translate(-8.45 -8.32)"/><path class="cls-1" d="M155.2,393.7c-2.6,2.3-33.6,41.3-33.1,41.7.2.1,3,2.3,6.2,4.9l5.9,4.7,9-11.2c4.9-6.2,9.3-11.7,9.7-12.1s2.1,3.1,3.6,8A99.6,99.6,0,0,0,180.7,471c9.6,10.1,17.4,16,28.3,21.5,30.4,15.3,63.7,15.3,94,0,10.3-5.1,15.1-8.6,24.3-17.4,13.2-12.6,21.6-25.7,27.4-42.6,2.5-7.4,5.3-22.5,5.3-28.8V400H344.3l-.7,7.5c-4.7,51.3-52.1,87.9-102.5,79.1a88.35,88.35,0,0,1-69.2-61c-1-3.3-1.7-6.2-1.4-6.4s5.8,4,12.5,9.3,12.2,9.6,12.4,9.4,2.3-3,4.9-6.2l4.7-5.9-21.1-16.9C161.7,391.1,159.5,390,155.2,393.7Z" transform="translate(-8.45 -8.32)"/></svg>