<?xml version="1.0" standalone="no"?><svg xmlns="http://www.w3.org/2000/svg" viewBox="0 0 1440 320"><path fill="#ffc30b" fill-opacity="1" d="M0,128L17.1,122.7C34.3,117,69,107,103,128C137.1,149,171,203,206,234.7C240,267,274,277,309,245.3C342.9,213,377,139,411,122.7C445.7,107,480,149,514,165.3C548.6,181,583,171,617,165.3C651.4,160,686,160,720,144C754.3,128,789,96,823,74.7C857.1,53,891,43,926,69.3C960,96,994,160,1029,165.3C1062.9,171,1097,117,1131,106.7C1165.7,96,1200,128,1234,128C1268.6,128,1303,96,1337,106.7C1371.4,117,1406,171,1423,197.3L1440,224L1440,0L1422.9,0C1405.7,0,1371,0,1337,0C1302.9,0,1269,0,1234,0C1200,0,1166,0,1131,0C1097.1,0,1063,0,1029,0C994.3,0,960,0,926,0C891.4,0,857,0,823,0C788.6,0,754,0,720,0C685.7,0,651,0,617,0C582.9,0,549,0,514,0C480,0,446,0,411,0C377.1,0,343,0,309,0C274.3,0,240,0,206,0C171.4,0,137,0,103,0C68.6,0,34,0,17,0L0,0Z"></path></svg>